<?xml version="1.0" encoding="UTF-8" standalone="no"?>
<!-- Created with Inkscape (http://www.inkscape.org/) -->

<svg
   width="128"
   height="128"
   viewBox="0 0 33.866667 33.866666"
   version="1.1"
   id="svg1"
   inkscape:version="1.4.2 (f4327f4, 2025-05-13)"
   sodipodi:docname="health_heart.svg"
   xml:space="preserve"
   xmlns:inkscape="http://www.inkscape.org/namespaces/inkscape"
   xmlns:sodipodi="http://sodipodi.sourceforge.net/DTD/sodipodi-0.dtd"
   xmlns="http://www.w3.org/2000/svg"
   xmlns:svg="http://www.w3.org/2000/svg"><sodipodi:namedview
     id="namedview1"
     pagecolor="#ffffff"
     bordercolor="#000000"
     borderopacity="0.25"
     inkscape:showpageshadow="2"
     inkscape:pageopacity="0.0"
     inkscape:pagecheckerboard="0"
     inkscape:deskcolor="#d1d1d1"
     inkscape:document-units="mm"
     inkscape:zoom="2.1612093"
     inkscape:cx="-17.814101"
     inkscape:cy="69.636939"
     inkscape:window-width="2560"
     inkscape:window-height="1494"
     inkscape:window-x="-11"
     inkscape:window-y="-11"
     inkscape:window-maximized="1"
     inkscape:current-layer="layer1" /><defs
     id="defs1" /><g
     inkscape:label="Ebene 1"
     inkscape:groupmode="layer"
     id="layer1"><path
       id="path8"
       style="fill:none;stroke:#2e303a;stroke-width:5.64;stroke-linecap:round;stroke-linejoin:round;stroke-dasharray:none;stroke-opacity:1;paint-order:stroke fill markers"
       d="M 14.957642,5.1495156 A 11.251859,11.774266 0 0 0 3.7059455,16.923687 11.251859,11.774266 0 0 0 14.957642,28.697858 11.251859,11.774266 0 0 0 16.967901,28.508347 11.251859,11.774266 0 0 0 18.976241,28.697858 11.251859,11.774266 0 0 0 30.228418,16.923687 11.251859,11.774266 0 0 0 18.976241,5.1495156 11.251859,11.774266 0 0 0 16.966942,5.338547 11.251859,11.774266 0 0 0 14.957642,5.1495156 Z" /><path
       id="ellipse6"
       style="fill:#c78300;stroke-width:8.91286;stroke-linecap:round;stroke-linejoin:round;paint-order:stroke fill markers"
       d="M 30.228193,16.923773 A 11.251859,11.774266 0 0 1 18.976333,28.69804 11.251859,11.774266 0 0 1 7.7244748,16.923773 11.251859,11.774266 0 0 1 18.976333,5.1495073 11.251859,11.774266 0 0 1 30.228193,16.923773 Z" /><path
       style="font-weight:900;font-size:50.8px;line-height:1;font-family:Inter;-inkscape-font-specification:'Inter Heavy';letter-spacing:0.330729px;fill:#cf534f;stroke:#2e303a;stroke-width:5.64;stroke-linecap:round;stroke-linejoin:round;stroke-dasharray:none;stroke-opacity:1;paint-order:stroke fill markers"
       d="M -23.373117,11.553314 -34.043237,0.41894178 q -1.269573,-1.339698 -1.697519,-3.09618898 -0.427945,-1.771379 0,-3.52787 0.427946,-1.756493 1.697519,-3.0515339 1.298102,-1.3248119 2.952827,-1.7564919 1.66899,-0.446566 3.323715,0 1.668988,0.43168 2.967091,1.7564919 l 1.426487,1.4290106 1.397956,-1.4290106 q 1.312368,-1.3248119 2.967092,-1.7564919 1.66899,-0.446566 3.323714,0 1.668989,0.43168 2.952827,1.7564919 1.269573,1.2950409 1.697519,3.0515339 0.427946,1.756491 0,3.52787 -0.413681,1.75649098 -1.697519,3.09618898 z"
       id="text1"
       aria-label="â¤" /><ellipse
       style="fill:#fd6c40;fill-opacity:1;stroke:none;stroke-width:29.5256;stroke-linecap:round;stroke-linejoin:round;stroke-dasharray:none;stroke-opacity:1;paint-order:stroke fill markers"
       id="path1"
       cx="-29.562513"
       cy="-5.6683135"
       rx="6.094492"
       ry="5.6286349" /><ellipse
       style="fill:#cf534f;fill-opacity:1;stroke:none;stroke-width:29.7832;stroke-linecap:round;stroke-linejoin:round;stroke-dasharray:none;stroke-opacity:1;paint-order:stroke fill markers"
       id="ellipse2"
       cx="-28.696846"
       cy="-4.0668302"
       rx="7.1339083"
       ry="4.892818" /><ellipse
       style="fill:#cf534f;fill-opacity:1;stroke:none;stroke-width:17.5591;stroke-linecap:round;stroke-linejoin:round;stroke-dasharray:none;stroke-opacity:1;paint-order:stroke fill markers"
       id="ellipse3"
       cx="-17.486465"
       cy="-4.6078725"
       rx="3.9736087"
       ry="3.0532765" /><ellipse
       style="fill:#fd6c40;fill-opacity:1;stroke:none;stroke-width:29.5256;stroke-linecap:round;stroke-linejoin:round;stroke-dasharray:none;stroke-opacity:1;paint-order:stroke fill markers"
       id="ellipse4"
       cx="17.180315"
       cy="-5.6683135"
       rx="6.094492"
       ry="5.6286349"
       transform="scale(-1,1)" /><ellipse
       style="fill:#cf534f;fill-opacity:1;stroke:none;stroke-width:29.7832;stroke-linecap:round;stroke-linejoin:round;stroke-dasharray:none;stroke-opacity:1;paint-order:stroke fill markers"
       id="ellipse5"
       cx="18.045982"
       cy="-4.0668302"
       rx="7.1339083"
       ry="4.892818"
       transform="scale(-1,1)" /><path
       id="path2"
       style="fill:#ffc044;stroke-width:8.91286;stroke-linecap:round;stroke-linejoin:round;paint-order:stroke fill markers"
       d="M 26.209672,16.923773 A 11.251859,11.774266 0 0 1 14.957812,28.69804 11.251859,11.774266 0 0 1 3.7059539,16.923773 11.251859,11.774266 0 0 1 14.957812,5.1495073 11.251859,11.774266 0 0 1 26.209672,16.923773 Z" /><path
       d="M 15.364732,6.4720393 C 15.233849,6.5276638 14.970448,6.7059912 14.834658,6.8336016 14.482912,7.157535 14.183519,7.6761555 13.975744,8.3207508 13.73852,9.048783 13.62727,10.028764 13.686167,10.840234 c 0.04744,0.642958 0.173418,1.411891 0.312481,1.919059 l 0.03272,0.119431 -0.117794,0.125973 c -0.06544,0.06871 -0.312481,0.323934 -0.54807,0.567702 -0.62987,0.649504 -0.867094,0.921084 -1.220476,1.398805 -0.4041,0.548069 -0.623327,0.91781 -0.845826,1.436432 -0.376287,0.875274 -0.487537,1.678564 -0.345202,2.496578 0.16851,0.96362 0.611873,1.815991 1.295734,2.496578 0.546433,0.544797 1.261377,0.942352 1.977957,1.102683 0.320661,0.07035 0.456451,0.08344 0.881819,0.0818 0.337021,0 0.435183,-0.0065 0.611874,-0.03599 0.116158,-0.01964 0.212684,-0.03436 0.21432,-0.03272 0.0065,0.0082 0.319026,1.343178 0.35829,1.534594 0.08017,0.376286 0.09816,0.546433 0.09816,0.899814 0,0.386103 -0.02455,0.56443 -0.114521,0.816379 -0.06545,0.184871 -0.139062,0.297756 -0.286305,0.443362 -0.307573,0.305938 -0.770569,0.494081 -1.217204,0.492446 -0.265038,0 -0.446636,-0.04581 -0.618419,-0.152151 l -0.06217,-0.03926 0.125973,-0.02945 c 0.39592,-0.09325 0.711672,-0.386103 0.850735,-0.78693 0.04254,-0.121066 0.04581,-0.150514 0.04744,-0.384466 0,-0.279761 -0.01636,-0.366471 -0.107978,-0.577518 -0.258493,-0.59061 -0.889999,-0.909635 -1.462609,-0.739489 -0.518621,0.152151 -0.894907,0.626599 -1.015973,1.276102 -0.07199,0.387739 0.05889,0.894907 0.317389,1.235201 0.638051,0.839283 2.02213,1.119043 3.033195,0.611875 0.464632,-0.233952 0.78693,-0.554614 0.996341,-0.994705 0.225772,-0.474448 0.266673,-1.009429 0.135791,-1.760366 -0.03926,-0.225772 -0.193052,-0.973436 -0.268309,-1.308822 -0.04581,-0.19796 -0.161967,-0.775477 -0.158694,-0.77875 0.0016,-0.0016 0.07198,-0.03272 0.157058,-0.07035 0.217593,-0.09489 0.467905,-0.248676 0.665864,-0.407371 0.301029,-0.240496 0.520256,-0.516985 0.716579,-0.903087 0.2225,-0.438456 0.31739,-0.816379 0.332115,-1.325183 0.01308,-0.433547 -0.02127,-0.7084 -0.137427,-1.120679 -0.28794,-1.015973 -1.030698,-1.78327 -1.950145,-2.012314 -0.289577,-0.07199 -0.498989,-0.08344 -0.932536,-0.05235 -0.03926,0.0032 -0.0409,-0.0049 -0.143971,-0.503896 -0.05726,-0.279761 -0.140698,-0.682224 -0.184871,-0.89818 l -0.0818,-0.389375 0.181599,-0.191414 c 0.927628,-0.970165 1.505146,-2.228271 1.69329,-3.690879 0.03763,-0.287941 0.04254,-1.1583074 0.0098,-1.4397044 C 16.801157,8.3420196 16.541029,7.591083 16.099301,6.9219476 15.95533,6.7043557 15.791728,6.5194845 15.70011,6.4720399 c -0.09325,-0.047445 -0.224136,-0.047445 -0.335386,0 z m 0.574245,2.0663029 c 0.07362,0.037629 0.137426,0.1112499 0.168511,0.1914153 0.03926,0.099798 0.0818,0.3926468 0.0818,0.5595214 0,0.7411211 -0.438456,1.7554581 -1.132131,2.6143731 -0.179963,0.224135 -0.459724,0.508804 -0.484264,0.492443 -0.04417,-0.02618 -0.142335,-0.585697 -0.161967,-0.909631 -0.02454,-0.435183 0.09653,-1.158307 0.292848,-1.7423694 0.09489,-0.2830326 0.286305,-0.6953116 0.389375,-0.83601 0.150515,-0.2045033 0.346838,-0.3582899 0.512077,-0.400827 0.08835,-0.022903 0.258492,-0.00655 0.33375,0.031085 z m -1.354631,7.1887058 c 0.06708,0.345201 0.130883,0.672407 0.142334,0.729669 l 0.01964,0.103069 -0.125974,0.0638 c -0.484264,0.243769 -0.932536,0.703492 -1.197572,1.228658 -0.507169,1.009429 -0.369743,2.051578 0.369742,2.78779 0.251948,0.251949 0.530073,0.422095 0.880183,0.538253 l 0.176691,0.05727 0.08671,-0.03108 c 0.122701,-0.04581 0.165238,-0.09816 0.163602,-0.194687 -0.0016,-0.12761 -0.0409,-0.171783 -0.229043,-0.265036 -0.315754,-0.153786 -0.474448,-0.310846 -0.628235,-0.628235 -0.130883,-0.266673 -0.171783,-0.436819 -0.158694,-0.654411 0.01145,-0.184871 0.04254,-0.312482 0.109613,-0.46136 0.13579,-0.297757 0.446636,-0.623326 0.759116,-0.791837 l 0.122703,-0.06545 0.0098,0.03763 c 0.0049,0.02127 0.11943,0.597151 0.255221,1.281011 0.134154,0.683859 0.29612,1.496965 0.358289,1.80781 0.06053,0.310845 0.106343,0.569338 0.101433,0.575881 -0.01472,0.01472 -0.286304,0.06871 -0.518619,0.10307 -0.711673,0.106343 -1.582039,-0.130882 -2.175918,-0.593877 -0.147242,-0.112886 -0.39101,-0.353382 -0.50226,-0.494082 -0.430276,-0.541524 -0.654411,-1.294097 -0.587334,-1.961596 0.07689,-0.757481 0.330478,-1.397168 0.81965,-2.071211 0.294484,-0.404099 0.685495,-0.855643 1.040514,-1.202481 0.214319,-0.207776 0.562792,-0.523529 0.577517,-0.523529 0.0049,0 0.06545,0.281398 0.130882,0.624963 z m 1.454428,2.386965 c 0.677316,0.178326 1.173032,0.747665 1.318639,1.518234 0.03108,0.158694 0.03272,0.269943 0.0098,0.489172 -0.0589,0.548069 -0.222499,0.930899 -0.526802,1.223748 -0.104705,0.101433 -0.355017,0.284669 -0.389373,0.284669 -0.0065,0 -0.03108,-0.09325 -0.05399,-0.209412 -0.0229,-0.114521 -0.09325,-0.46136 -0.157059,-0.772205 -0.261764,-1.290826 -0.476083,-2.339519 -0.498988,-2.454042 -0.01473,-0.06708 -0.02617,-0.125974 -0.02617,-0.129245 0,-0.01308 0.202867,0.01799 0.323933,0.04909 z"
       id="path1-8"
       style="fill:#c78300;fill-opacity:1;stroke:none;stroke-width:0.00163603" /></g></svg>
